<?xml version="1.0" encoding="UTF-8"?><svg id="a" xmlns="http://www.w3.org/2000/svg" viewBox="0 0 1019.88 748"><defs><style>.b{fill:#111;}.c{fill:#a408ff;}</style></defs><path class="b" d="M150.93,474.64h-27.4c-.24-3.24-.47-6.27-.74-9.84-.94,.55-1.76,.81-2.27,1.36-10.43,11.12-23.53,12.46-37.33,9.46-13.21-2.88-21.32-12.34-22.35-24.58-1.39-16.55,4.67-28.87,18.69-33.65,9.4-3.2,19.67-3.99,29.61-5.47,3.91-.58,7.99-.1,11.86-.1,2.22-11.3-.78-18.26-8.4-20.39-10.55-2.95-17.9,.97-21.57,11.81h-26.59c1.12-15.03,9.9-26.04,24.62-30.56,12.78-3.92,25.77-4.03,38.56-.14,13.55,4.12,22.58,13.28,23.08,27.54,.87,24.63,.24,49.31,.24,74.57Zm-29.4-42.91c-6.6,0-12.84-.39-19.01,.09-9.62,.76-14.27,6.31-13.24,14.93,.9,7.51,7.77,11.79,16.68,10.38,12.77-2.03,17.06-8.8,15.58-25.4Z"/><path class="b" d="M478.74,430.52h-66.44c-.46,19.53,12.53,30.32,28.7,24.19,3.35-1.27,7.06-3.83,8.71-6.83,2.41-4.4,5.37-5.17,9.74-4.98,6.26,.28,12.53,.07,20.99,.07-3.36,6.69-5.25,12.76-8.95,17.39-13.06,16.31-31.31,18.37-50.24,15.64-17.02-2.45-29.41-11.97-35.1-28.7-5.54-16.3-5.46-32.75,.86-48.79,8.4-21.3,28.76-31.91,53.83-28.63,21.41,2.8,34.77,16.38,37.75,39.3,.88,6.77,.14,13.76,.14,21.35Zm-65.65-19.38h36.77c.88-12.86-5.67-21.03-16.87-21.42-11.69-.41-19.72,8.13-19.9,21.42Z"/><path class="b" d="M957.58,430.59h-65.52c-1.79,10.63,3.29,20.84,11.73,24.12,10.2,3.96,20.22,.61,26.45-8.49,1.04-1.52,3.32-3.01,5.09-3.09,7.16-.35,14.34-.14,22.43-.14-.69,7.5-3.95,13.3-8.39,18.19-15.71,17.32-35.78,18.74-56.49,13.08-19.54-5.35-29.04-20.22-31.13-39.77-1.54-14.45-.88-28.71,6.56-41.9,10.6-18.79,32.78-27.26,56.84-21.51,19.66,4.7,31.75,20.54,32.42,42.62,.16,5.34,.02,10.69,.02,16.89Zm-28.81-19.44c.07-13.23-6.11-20.85-16.85-21.41-11.78-.61-19.88,7.55-20.96,21.41h37.81Z"/><path class="b" d="M679.39,372.41h29.07c0,2.66,0,5.05,0,7.44,0,18.88-.07,37.75,.03,56.63,.07,13.16,4.18,18.36,14.25,18.51,11.36,.18,18.45-7.01,18.56-19.25,.18-20.67,.16-41.34,.24-62.01,0-.19,.18-.39,.53-1.1h28.02v101.91h-27.88c-.24-3.94-.47-7.83-.78-13.03-7.4,9.58-15.94,14.85-27.26,15.28-20.28,.77-33.79-10.02-34.55-30.2-.92-24.43-.22-48.93-.22-74.19Z"/><path class="b" d="M588.18,474.49h-28.86c0-5.49,0-10.6,0-15.71-.01-16.63,.1-33.26-.09-49.89-.12-10.37-4.49-15.32-13.43-16.03-9.66-.77-17.21,4.36-19.12,13.29-.65,3.05-.85,6.23-.86,9.36-.08,17.08-.04,34.16-.04,51.24,0,2.43,0,4.85,0,7.71h-28.43v-101.9h28.17v10.85c7.18-4.17,13.65-9.78,21.11-11.92,22.48-6.43,39.46,4.15,41.14,27.34,1.8,24.97,.41,50.16,.41,75.66Z"/><path class="b" d="M261.51,407.71h-26.86c-5.18-13.51-11.55-17.85-22.13-15.33-7.35,1.75-11.56,6.86-13.72,13.56-3.84,11.86-3.77,23.93-.02,35.79,2.84,8.97,9.13,13.25,18.13,13.27,8.56,.02,14.72-4.12,17.47-13.04,1.35-4.38,3.4-5.55,7.61-5.36,6.46,.29,12.93,.08,19.32,.08,1.42,15.29-9.29,31.07-24.68,36.91-11.06,4.19-22.5,4.33-33.85,1.78-17.05-3.83-28.19-14.46-32.84-31.28-4.36-15.77-4.19-31.6,2.24-46.87,11.86-28.19,52.71-37.63,76.01-17.7,8.48,7.25,12.39,16.69,13.34,28.18Z"/><path class="b" d="M369.08,407.91h-26.68c-.53-1.34-1.18-2.73-1.65-4.18-2.31-7.16-7.07-11.45-14.68-11.89-7.61-.44-14.08,2.5-17.35,9.4-7.03,14.81-6.97,30.12-.17,44.95,3.21,7.01,10.02,9.25,17.61,8.77,7.89-.5,13.32-4.77,15.45-12,1.62-5.52,4.51-6.71,9.63-6.38,5.99,.39,12.03,.09,18.04,.09-.17,20.85-14.64,37.27-34.95,39.46-7.51,.81-15.43,.86-22.8-.58-19.94-3.88-33.09-18.04-35.52-38.95-1.15-9.88-.99-20.38,1.04-30.09,6.86-32.9,46.59-48.48,74.83-29.95,10.94,7.18,16.17,17.56,17.22,31.35Z"/><path class="b" d="M612.9,393.9c-4.33-.33-7.86-.59-11.75-.89v-20.54c3.73-.23,7.23-.45,11.75-.72,0-5-.32-9.88,.15-14.67,.19-1.97,1.65-4.74,3.29-5.5,7.91-3.66,16.07-6.76,25.05-10.43v30.54h19.76v21.47h-19.41c0,4.32,0,7.79,0,11.26,0,10.56,0,21.11,0,31.67,0,16.43,3.01,19.03,20.21,16.41,0,6.5,.21,12.88-.18,19.22-.08,1.25-2.47,3.39-3.79,3.38-9.32-.06-18.93,.73-27.89-1.27-11.05-2.47-16.79-11.88-17.05-24.63-.32-15.94-.13-31.89-.17-47.84,0-2.41,0-4.82,0-7.46Z"/><path class="c" d="M583.89,333.48c0-8.26-.36-15.21,.23-22.08,.16-1.86,2.87-4.27,4.94-5.08,12.94-5.08,26.04-9.77,39.08-14.63,2-.75,3.92-1.71,7.63-3.34-6.56-2.65-11.4-4.69-16.29-6.57-10.25-3.96-20.5-7.94-30.83-11.69-3.43-1.25-5.04-3.02-4.87-6.87,.29-6.24,.08-12.51,.08-19.78,3.49,1.28,6.18,2.18,8.8,3.23,23.96,9.6,47.85,19.36,71.91,28.71,4.79,1.86,6.39,4.28,6.3,9.33-.25,14.31-.06,14.24-13.17,19.46-22.11,8.8-44.17,17.7-66.26,26.54-2.02,.81-4.09,1.51-7.55,2.78Z"/><path class="b" d="M792.2,372.42h28.51v15.47c7.65-10.82,17.21-17.08,31.02-16.72v27.67c-4.49,.67-9.14,1.08-13.65,2.08-11.34,2.52-16.89,9.29-17.02,20.93-.17,15.93-.05,31.87-.07,47.81,0,1.54-.13,3.08-.22,5.11h-28.57v-102.35Z"/></svg>