<?xml version="1.0" encoding="UTF-8"?><svg id="a" xmlns="http://www.w3.org/2000/svg" viewBox="0 0 1019.88 748"><defs><style>.b{fill:#104a54;}.c{fill:#fb8c23;}</style></defs><path class="b" d="M372.41,748c-109.14-.7-190.75-11.62-259.41-62.45C30.66,624.59-8.69,542.3,1.61,437.52c9.83-99.96,45.44-189.28,105.01-269.07C169.56,84.16,253.35,29,355.36,4.85c28.31-6.7,61.98-6.81,89.41,1.93,71.61,22.83,94.53,114.49,46.1,181.06-16.01,22-40.43,38.35-62.44,55.44-56.69,44-117.2,83.59-170.41,131.38-44.39,39.86-76,90.66-78.02,154.8-2.95,93.72,69.52,172.43,164.54,185.29,124.65,16.88,239.45-16.04,350.42-69.3,52.58-25.24,102.34-53.99,140.69-99.06,24.15-28.39,38.94-61.14,34.91-98.82-5.87-55.04-44.22-84.22-109.63-85.83-54.29-1.34-104.15,17.3-154.21,34.99-27.94,9.87-55.84,19.95-84.19,28.52-40.99,12.4-84.75-7.15-104.56-45.42-19.4-37.49-10.84-79.56,28.74-104.18,35.39-22.02,74.84-38.24,113.84-53.59,69.03-27.17,139.82-49.66,214.46-54.3,63.71-3.96,126.92-.81,181.92,37.97,55.71,39.28,73.47,89.06,57.09,155.38-23.55,95.33-85.34,163.43-159.19,222.5-103.32,82.63-224.1,125.01-352.37,147.95-51.35,9.18-103.62,13.19-130.06,16.44Z"/><path class="c" d="M723.66,562.54c-45.34-.21-80.16-35.1-80.27-80.43-.09-41.26,39.61-80.06,82.36-80.46,44.47-.42,80.29,37.2,79.69,83.69-.6,46.2-33.68,77.43-81.78,77.2Z"/></svg>